<svg xmlns="http://www.w3.org/2000/svg" xmlns:xlink="http://www.w3.org/1999/xlink" version="1.1" x="0px" y="0px" viewBox="0 0 90 90" enable-background="new 0 0 90 90" xml:space="preserve"><path fill="#000000" d="M69.986,30.112C69.986,16.312,58.8,5.125,45,5.125c-13.8,0-24.987,11.187-24.987,24.987  c0,3.774,0.837,7.353,2.335,10.561c3.98,8.521,12.456,24.334,12.456,24.334l10.713-2.918h0.043v-8.78l9.057-9.483v-2.778  c0.726-0.237,1.258-0.896,1.258-1.7c0-1.001-0.812-1.813-1.812-1.813s-1.812,0.812-1.812,1.813c0,0.804,0.533,1.462,1.258,1.7v2.794  l-7.947,8.358V41.271c0.743-0.227,1.295-0.892,1.295-1.708c0-1.001-0.812-1.813-1.813-1.813c-1,0-1.812,0.812-1.812,1.813  c0,0.817,0.551,1.482,1.294,1.708v20.032l-9.108,2.292c0,0-7.968-14.863-11.709-22.874c-1.408-3.015-2.195-6.379-2.195-9.927  C21.513,17.823,32.029,7.307,45,7.307c12.971,0,23.487,10.516,23.487,23.488c0,3.517-0.772,6.853-2.158,9.849  c-3.725,8.053-12.007,23.518-12.007,23.518l-18.644,5.178l12.429,1.036l-12.429,3.107l13.464,1.459l-12.428,2.684l13.223,3.125  L37.75,82.804l9.105,2.071l-5.355-2l12.822-2.143l-14.01-2.92l12.75-3.188L40.75,73.25l11.509-3.438l-11.946-0.938l14.41-3.868  c0,0,9.006-15.852,12.968-24.418C69.165,37.403,69.986,33.854,69.986,30.112"/></svg>